<svg width="21" height="20" viewBox="0 0 21 20" fill="none" xmlns="http://www.w3.org/2000/svg">
<path d="M20.5715 10.0801C20.5598 12.5353 19.6453 14.9005 18.0022 16.7249C16.359 18.5493 14.1021 19.7055 11.6615 19.9731V12.8001H14.0115C14.1149 12.8006 14.2149 12.7633 14.2927 12.6951C14.3704 12.627 14.4205 12.5327 14.4335 12.4301L14.6875 10.2281C14.6967 10.1703 14.6931 10.1111 14.677 10.0548C14.661 9.99854 14.6328 9.94643 14.5946 9.90214C14.5563 9.85785 14.5088 9.82246 14.4554 9.79844C14.402 9.77442 14.344 9.76235 14.2855 9.76308H11.6615V7.96308C11.6615 7.12708 11.8945 6.55608 13.0895 6.55608H14.2015C14.3119 6.55321 14.4169 6.50724 14.4938 6.428C14.5708 6.34877 14.6138 6.24256 14.6135 6.13208V4.23808C14.6109 4.12763 14.5651 4.02259 14.4861 3.94542C14.4071 3.86824 14.3009 3.82505 14.1905 3.82508H12.3915C11.8861 3.78895 11.379 3.86352 10.9055 4.04359C10.432 4.22367 10.0034 4.5049 9.64978 4.86768C9.29615 5.23045 9.02594 5.66602 8.858 6.144C8.69007 6.62197 8.62846 7.13084 8.67747 7.63508V9.75108H6.91047C6.8553 9.75106 6.80068 9.76209 6.74984 9.78353C6.699 9.80497 6.65298 9.83638 6.61448 9.87591C6.57598 9.91543 6.54579 9.96227 6.5257 10.0136C6.5056 10.065 6.496 10.1199 6.49747 10.1751V12.3751C6.49747 12.4846 6.54098 12.5897 6.61844 12.6671C6.69589 12.7446 6.80094 12.7881 6.91047 12.7881H8.67747V19.8251C6.40844 19.3875 4.361 18.1775 2.88323 16.401C1.40546 14.6244 0.588585 12.3909 0.571472 10.0801C0.571472 7.42791 1.62504 4.88437 3.5004 3.00901C5.37577 1.13365 7.91931 0.0800781 10.5715 0.0800781C13.2236 0.0800781 15.7672 1.13365 17.6425 3.00901C19.5179 4.88437 20.5715 7.42791 20.5715 10.0801Z" fill="black"/>
</svg>
