<svg width="56" height="48" viewBox="0 0 56 48" fill="none" xmlns="http://www.w3.org/2000/svg">
<path d="M40.5 0.0953598C35.25 0.0953598 30.685 2.46286 28 6.43036C25.315 2.46286 20.75 0.0953598 15.5 0.0953598C11.5232 0.0999913 7.71055 1.68183 4.89851 4.49387C2.08646 7.30592 0.504624 11.1185 0.499992 15.0954C0.499992 22.3954 5.04999 29.9929 14.025 37.6729C18.1376 41.1772 22.58 44.275 27.29 46.9229C27.5083 47.0401 27.7522 47.1015 28 47.1015C28.2478 47.1015 28.4917 47.0401 28.71 46.9229C33.4199 44.275 37.8623 41.1772 41.975 37.6729C50.95 29.9929 55.5 22.3954 55.5 15.0954C55.4954 11.1185 53.9135 7.30592 51.1015 4.49387C48.2894 1.68183 44.4768 0.0999913 40.5 0.0953598ZM28 43.8729C23.8975 41.5054 3.49999 29.0254 3.49999 15.0954C3.5033 11.9138 4.76865 8.86345 7.01837 6.61373C9.26809 4.36401 12.3184 3.09867 15.5 3.09536C20.57 3.09536 24.8275 5.80286 26.6125 10.1629C26.7255 10.438 26.9178 10.6733 27.1648 10.8389C27.4119 11.0045 27.7026 11.0929 28 11.0929C28.2974 11.0929 28.5881 11.0045 28.8352 10.8389C29.0822 10.6733 29.2745 10.438 29.3875 10.1629C31.1725 5.80286 35.43 3.09536 40.5 3.09536C43.6816 3.09867 46.7319 4.36401 48.9816 6.61373C51.2313 8.86345 52.4967 11.9138 52.5 15.0954C52.5 29.0254 32.1025 41.5054 28 43.8729Z" fill="black"/>
</svg>
