<svg width="21" height="20" viewBox="0 0 21 20" fill="none" xmlns="http://www.w3.org/2000/svg">
<path d="M11.9345 9.82825L9.62435 8.7503C9.42275 8.6567 9.25715 8.76162 9.25715 8.98482V11.0152C9.25715 11.2384 9.42275 11.3433 9.62435 11.2497L11.9335 10.1718C12.1361 10.0772 12.1361 9.92288 11.9345 9.82825ZM10.2857 0.125732C4.83224 0.125732 0.411438 4.54653 0.411438 10C0.411438 15.4535 4.83224 19.8743 10.2857 19.8743C15.7392 19.8743 20.16 15.4535 20.16 10C20.16 4.54653 15.7392 0.125732 10.2857 0.125732ZM10.2857 14.0114C5.23132 14.0114 5.14287 13.5558 5.14287 10C5.14287 6.44425 5.23132 5.98859 10.2857 5.98859C15.3401 5.98859 15.4286 6.44425 15.4286 10C15.4286 13.5558 15.3401 14.0114 10.2857 14.0114Z" fill="black"/>
</svg>
